<svg xmlns="http://www.w3.org/2000/svg" width="270" height="270" viewBox="0 0 270 270" fill="none">
  <g filter="url(#filter0_d_5_285)">
    <path fill-rule="evenodd" clip-rule="evenodd" d="M123 210C176.572 210 220 166.572 220 113C220 59.4284 176.572 16 123 16C69.4284 16 26 59.4284 26 113C26 166.572 69.4284 210 123 210ZM123 202C172.153 202 212 162.153 212 113C212 63.8467 172.153 24 123 24C73.8467 24 34 63.8467 34 113C34 162.153 73.8467 202 123 202Z" fill="url(#paint0_linear_5_285)"/>
  </g>
  <defs>
    <filter id="filter0_d_5_285" x="0" y="0" width="270" height="270" filterUnits="userSpaceOnUse" color-interpolation-filters="sRGB">
      <feFlood flood-opacity="0" result="BackgroundImageFix"/>
      <feColorMatrix in="SourceAlpha" type="matrix" values="0 0 0 0 0 0 0 0 0 0 0 0 0 0 0 0 0 0 127 0" result="hardAlpha"/>
      <feOffset dx="12" dy="22"/>
      <feGaussianBlur stdDeviation="19"/>
      <feColorMatrix type="matrix" values="0 0 0 0 0.494118 0 0 0 0 0.937255 0 0 0 0 0.716461 0 0 0 0.159473 0"/>
      <feBlend mode="normal" in2="BackgroundImageFix" result="effect1_dropShadow_5_285"/>
      <feBlend mode="normal" in="SourceGraphic" in2="effect1_dropShadow_5_285" result="shape"/>
    </filter>
    <linearGradient id="paint0_linear_5_285" x1="202.915" y1="113" x2="202.915" y2="-46.8307" gradientUnits="userSpaceOnUse">
      <stop stop-color="#42BFB4"/>
      <stop offset="1" stop-color="#C9E55E"/>
    </linearGradient>
  </defs>
</svg>