<svg xmlns="http://www.w3.org/2000/svg" width="120" height="5" viewBox="0 0 153 4" fill="none">
<path d="M0.686133 1.6236C0.686133 2.50725 1.40248 3.2236 2.28613 3.2236C3.16979 3.2236 3.88613 2.50725 3.88613 1.6236C3.88613 0.739941 3.16979 0.0235962 2.28613 0.0235962C1.40248 0.0235962 0.686133 0.739941 0.686133 1.6236ZM148.821 1.6236C148.821 2.50725 149.537 3.2236 150.421 3.2236C151.305 3.2236 152.021 2.50725 152.021 1.6236C152.021 0.739941 151.305 0.0235962 150.421 0.0235962C149.537 0.0235962 148.821 0.739941 148.821 1.6236ZM2.28613 1.9236H150.421V1.3236H2.28613V1.9236Z" fill="#6E81A0"/>
</svg>